<svg width="21" height="16" viewBox="0 0 21 16" fill="none" xmlns="http://www.w3.org/2000/svg">
<path fill-rule="evenodd" clip-rule="evenodd" d="M7.23606 15.9999C14.7831 15.9999 18.9111 9.8435 18.9111 4.50529C18.9111 4.33004 18.9111 4.15611 18.8991 3.98283C19.7021 3.41179 20.3951 2.70278 20.9461 1.89152C20.1981 2.21839 19.4031 2.43275 18.5901 2.52726C19.4461 2.02219 20.0871 1.2287 20.3941 0.292403C19.5881 0.763013 18.7071 1.09514 17.7881 1.27335C16.2341 -0.353117 13.6351 -0.431917 11.9821 1.09806C10.9171 2.08457 10.4641 3.55544 10.7951 4.95841C7.49606 4.79498 4.42206 3.26109 2.33806 0.737713C1.24906 2.58372 1.80606 4.94441 3.60906 6.1298C2.95606 6.1111 2.31706 5.938 1.74606 5.62492V5.67619C1.74706 7.599 3.12406 9.2546 5.03806 9.6357C4.43406 9.7981 3.80006 9.8217 3.18606 9.7045C3.72306 11.3507 5.26406 12.4782 7.01906 12.5107C5.56606 13.635 3.77106 14.2455 1.92306 14.2436C1.59706 14.2426 1.27106 14.2239 0.94606 14.1855C2.82306 15.3709 5.00606 15.9999 7.23606 15.997" fill="#1D9BF0"/>
</svg>
